<svg width="367" height="458" viewBox="0 0 367 458" fill="none" xmlns="http://www.w3.org/2000/svg">
<path d="M160.326 50.6226C155.617 47.4648 155.561 45.1811 156.61 44.3353C157.66 43.4896 160.404 44.3273 163.626 46.5456C167.55 49.2478 169.743 53.3701 169.009 53.917C168.275 54.464 162.901 52.3495 160.326 50.6226Z" stroke="#AEDD88"/>
<path d="M149.13 51.2753C139.041 41.7354 117.541 46.0663 117.221 48.1028C116.901 50.1394 120.234 61.5882 128.366 71.7045C136.499 81.8208 153.882 81.9742 155.696 79.8042C157.51 77.6341 159.219 60.8151 149.13 51.2753Z" stroke="#AEDD88"/>
<path d="M88.5267 14.4138C86.5267 16.9138 90.3713 31.1748 97.5267 24.9138C101.527 21.4138 90.5267 11.9138 88.5267 14.4138Z" stroke="#AEDD88"/>
<path d="M364.727 18.1783C361.373 16.4248 344.845 23.3379 353.613 30.1098C358.515 33.8955 368.081 19.9318 364.727 18.1783Z" stroke="#AEDD88"/>
<path d="M85.4972 302.404C84.382 306.029 98.5083 318.559 103.363 310.64C105.46 307.219 86.6125 298.779 85.4972 302.404Z" stroke="#AEDD88"/>
<path d="M142.298 354.322C139.045 350.124 112.713 354.662 117.79 366.393C119.984 371.461 145.551 358.519 142.298 354.322Z" stroke="#AEDD88"/>
<path d="M78.0969 345.525C97.8617 349.059 103.803 340.446 103.334 333.687C102.865 326.928 93.8935 321.004 80.2246 318.81C63.5742 316.137 47.6342 324.709 48.0745 329.264C48.5148 333.818 67.2886 343.592 78.0969 345.525Z" stroke="#AEDD88"/>
<path d="M103.063 332.264L65.0501 319.213M103.41 336.05L77.2595 326.622L59.7805 338.641" stroke="#AEDD88"/>
<path d="M46.0388 103.934C75.4512 110.965 91.1801 96.3152 92.361 92.3653C93.5419 88.4154 70.2055 71.9993 50.0605 63.9768C30.2103 56.0717 5.35266 62.3591 4.75071 64.9381C4.14875 67.5172 29.9546 100.089 46.0388 103.934Z" stroke="#AEDD88"/>
<path d="M86.882 98.4843L34.8631 81.4523L18.8655 83.834" stroke="#AEDD88"/>
<path d="M90.107 95.6334L36.3908 77.3467L9.93895 62.3977" stroke="#AEDD88"/>
<path d="M63.57 120.139C44.0993 130.992 41.6256 144.478 42.8226 146.872C44.0196 149.266 66.0437 147.749 80.7265 143.281C95.4092 138.812 101.474 111.761 99.8779 108.968C98.282 106.175 83.0406 109.287 63.57 120.139Z" stroke="#AEDD88"/>
<path d="M44.7183 137.93L76.6374 119.975L82.6222 111.198" stroke="#AEDD88"/>
<path d="M43.5214 141.122L77.8344 121.172L99.3797 115.986" stroke="#AEDD88"/>
<path d="M153.321 10.3829C159.642 8.96604 186.413 14.0188 186.785 16.6988C186.998 18.2355 169.969 27.6161 153.781 31.6197C141.736 34.5984 129.846 33.4574 127.529 29.9816C122.098 21.834 145.42 12.1539 153.321 10.3829Z" stroke="#AEDD88"/>
<path d="M166.506 10.9489L136.233 33.3175" stroke="#AEDD88"/>
<path d="M158.233 10.0399L133.328 27.0602L127.042 28.2389" stroke="#AEDD88"/>
<path d="M110.499 17L110.499 458" stroke="#AEDD88"/>
<path d="M110.5 66.5L88.9999 45" stroke="#AEDD88"/>
<path d="M110.5 71.5L92.9999 54.5" stroke="#AEDD88"/>
<line x1="110" y1="39.5" x2="357" y2="39.5" stroke="#AEDD88"/>
</svg>
