<svg width="543" height="624" viewBox="0 0 543 624" fill="none" xmlns="http://www.w3.org/2000/svg">
<path d="M185.256 59.572C176.317 53.5774 176.21 49.2421 178.202 47.6366C180.195 46.0311 185.404 47.6213 191.52 51.8324C198.97 56.9621 203.132 64.7876 201.74 65.8259C200.347 66.8642 190.144 62.8502 185.256 59.572Z" stroke="#AEDD88"/>
<path d="M167.701 51.8889C157.612 42.349 136.112 46.6799 135.792 48.7164C135.472 50.753 138.804 62.2018 146.937 72.3181C155.07 82.4344 172.452 82.5878 174.266 80.4177C176.08 78.2477 177.79 61.4287 167.701 51.8889Z" stroke="#AEDD88"/>
<path d="M100.527 15.4138C98.5267 17.9138 102.371 32.1748 109.527 25.9138C113.527 22.4138 102.527 12.9138 100.527 15.4138Z" stroke="#AEDD88"/>
<path d="M305.12 21.5655C301.268 17.5492 274.987 19.4114 284.028 32.9561C289.081 40.5279 308.972 25.5819 305.12 21.5655Z" stroke="#AEDD88"/>
<path d="M98.2224 358.324C97.1071 361.949 111.233 374.479 116.088 366.56C118.185 363.139 99.3376 354.699 98.2224 358.324Z" stroke="#AEDD88"/>
<path d="M165.783 185.32C168.691 178.169 140.187 153.386 128.649 169C123.665 175.745 162.875 192.471 165.783 185.32Z" stroke="#AEDD88"/>
<path d="M161.14 145.884C140.489 156.879 130.317 152.254 128.072 146.522C125.827 140.791 133.432 132.26 147.816 124.861C165.337 115.848 186.672 116.344 188.046 120.257C189.419 124.17 172.433 139.872 161.14 145.884Z" stroke="#AEDD88"/>
<path d="M127.792 145.245L164.947 118.974M128.956 148.49L154.332 130.048L178.799 132.739" stroke="#AEDD88"/>
<path d="M50.5778 96.7134C86.9598 111.504 110.024 95.7796 112.314 90.9401C114.604 86.1006 87.8619 60.4519 63.5719 46.2044C39.6373 32.1654 6.49258 35.3656 5.21434 38.5586C3.9361 41.7516 30.6823 88.6252 50.5778 96.7134Z" stroke="#AEDD88"/>
<path d="M104.081 97.7219L40.6364 65.6612L19.6317 65.5835" stroke="#AEDD88"/>
<path d="M108.78 94.6939L43.4023 60.6897L12.3729 36.3139" stroke="#AEDD88"/>
<path d="M66.3151 211.213C41.9151 224.813 38.8151 241.713 40.3151 244.713C41.8151 247.713 69.4151 245.813 87.8151 240.213C106.215 234.613 113.815 200.713 111.815 197.213C109.815 193.713 90.7151 197.613 66.3151 211.213Z" stroke="#AEDD88"/>
<path d="M42.6909 233.507L82.6909 211.007L90.1909 200.007" stroke="#AEDD88"/>
<path d="M41.1909 237.507L84.1909 212.507L111.191 206.007" stroke="#AEDD88"/>
<path d="M185.321 10.3829C191.642 8.96604 218.413 14.0188 218.785 16.6988C218.998 18.2355 201.969 27.6161 185.781 31.6197C173.737 34.5984 161.846 33.4574 159.529 29.9816C154.098 21.834 177.42 12.1539 185.321 10.3829Z" stroke="#AEDD88"/>
<path d="M198.506 10.9489L168.233 33.3175" stroke="#AEDD88"/>
<path d="M190.233 10.0399L165.328 27.0602L159.042 28.2389" stroke="#AEDD88"/>
<line x1="122.5" y1="18" x2="122.5" y2="624" stroke="#AEDD88"/>
<path d="M122.5 67.5L101 46" stroke="#AEDD88"/>
<path d="M122.5 72.5L105 55.5" stroke="#AEDD88"/>
<line x1="122" y1="40.5" x2="543" y2="40.5" stroke="#AEDD88"/>
</svg>
