<svg width="509" height="605" viewBox="0 0 509 605" fill="none" xmlns="http://www.w3.org/2000/svg">
<path d="M64 232.189V535.689H446L446 232.189C446 143.246 375.332 47.6892 255.503 47.6892C135.674 47.6892 64 143.246 64 232.189Z" fill="url(#paint0_linear_39_369)"/>
<mask id="mask0_39_369" style="mask-type:alpha" maskUnits="userSpaceOnUse" x="64" y="47" width="382" height="489">
<path d="M64 232.189V535.689H446L446 232.189C446 143.246 375.332 47.6892 255.503 47.6892C135.674 47.6892 64 143.246 64 232.189Z" fill="url(#paint1_linear_39_369)"/>
</mask>
<g mask="url(#mask0_39_369)">
<path d="M71 163.689C86.8333 163.023 125.9 154.389 155.5 125.189C192.5 88.6892 201 71.1892 203.5 49.6892M65 194.689C89.3333 186.689 145 163.189 173 133.189C201 103.189 221.333 62.3558 228 45.6892M274.5 45.6892C262.5 79.3558 226.7 155.189 179.5 189.189C132.3 223.189 73.5 248.023 50 256.189M50 320.689C96 310.856 200.2 274.089 249 205.689C297.8 137.289 321.667 53.8558 327.5 20.6892M359.5 68.1892C347 110.689 310.79 198.372 289 228.689C243 292.689 134.5 382.189 46 387.189M54 410.689C93.1667 409.356 193 381.489 281 312.689C369 243.889 409.833 141.023 420.5 103.189M445.5 172.189C428.333 221.356 374.7 334.489 297.5 393.689C201 467.689 60 490.689 8.5 501.689M54 523.189C107.167 523.689 234.7 503.489 319.5 418.689C404.3 333.889 446.833 221.356 457.5 175.689M454 300.189C442 330.856 400 406.589 328 464.189C256 521.789 110 546.189 46 551.189M454 347.189C445.667 366.023 418.9 413.489 378.5 452.689C338.1 491.889 286 526.689 265 539.189M342.5 535.689C359 525.856 397 500.189 417 476.189C437 452.189 460 422.523 469 410.689M454 460.189C436.167 484.856 396.1 535.889 378.5 542.689" stroke="#E5FF8F"/>
<path d="M458 298.689H50.4999C49.6999 293.889 54.1666 293.689 56.4999 294.189C57.4999 290.523 60.3999 282.489 63.9999 279.689C67.5999 276.889 74.1666 278.523 76.9999 279.689L78.4999 276.189C77.4999 267.189 87.9999 250.689 107.5 247.189C123.1 244.389 132 254.023 134.5 259.189L139.5 256.689C139.5 250.023 141.4 235.989 149 233.189C156.6 230.389 164.833 231.356 168 232.189L169 230.689L168 227.189C167.2 224.789 169.333 220.523 170.5 218.689C169.333 216.856 166.4 211.789 164 206.189C161 199.189 171.5 160.189 184.5 158.689C194.9 157.489 203.167 162.856 206 165.689H208.5C208.667 164.689 210.9 162.889 218.5 163.689C226.1 164.489 228.333 176.356 228.5 182.189L232.5 184.189C234.5 178.523 244.5 168.589 268.5 174.189C310.1 183.389 315.5 207.689 313 218.689L318 222.189C321.5 215.689 334 202.689 356 202.689C383.5 202.689 396.5 226.189 408 248.189C419.5 270.189 427.5 270.689 429.5 277.189L432 278.189C432 278.189 433.5 277.189 439 274.689C449.827 269.768 456.333 289.023 458 298.689Z" fill="white"/>
<circle cx="81" cy="36.6892" r="101" fill="#E5FF8F"/>
<path d="M379 75.6892C361.8 86.0892 351.167 106.356 349 113.189L380.5 119.689L388 85.6892C392.5 77.6892 396.2 65.2892 379 75.6892Z" fill="#F5C98E"/>
<path d="M339.5 102.189C328.3 100.189 319.5 108.023 316.5 112.189C322.5 116.989 329.667 118.523 332.5 118.689L409.5 129.189L416.5 139.689L431.5 112.189L421 118.689C398.5 114.023 350.7 104.189 339.5 102.189Z" fill="white"/>
<path d="M350 112.189C342 153.389 364.5 181.689 366.5 181.689C368.5 181.689 381 117.689 381 117.689L350 112.189Z" fill="#F5C98E"/>
<rect x="44.6445" y="408.689" width="297" height="67" rx="2" transform="rotate(44.1218 44.6445 408.689)" fill="#2A2A2A"/>
<path d="M44.8536 412.484C45.6226 411.691 46.8888 411.671 47.6817 412.44L253.708 612.246C254.501 613.015 254.52 614.281 253.751 615.074L220.682 649.172C219.913 649.965 218.647 649.985 217.854 649.216L11.8281 449.41C11.0352 448.641 11.0158 447.375 11.7847 446.582L44.8536 412.484Z" fill="white"/>
<path d="M49.4656 413.474L11.8715 452.238M58.0799 421.828L20.4858 460.593M83.9229 446.891L46.3288 485.655M92.5372 455.245L54.9432 494.01M66.6942 430.182L29.1002 468.947M75.3086 438.537L37.7145 477.301M101.152 463.599L63.5575 502.364M109.766 471.954L72.1718 510.718M118.38 480.308L80.7862 519.072M126.995 488.662L89.4005 527.427M152.838 513.725L115.244 552.489M161.452 522.079L123.858 560.844M135.609 497.016L98.0148 535.781M144.223 505.371L106.629 544.135M170.066 530.433L132.472 569.198M178.681 538.787L141.086 577.552M187.295 547.142L149.701 585.906M195.909 555.496L158.315 594.26M221.752 580.559L184.158 619.323M230.367 588.913L192.772 627.677M204.524 563.85L166.929 602.615M213.138 572.204L175.544 610.969M238.981 597.267L201.387 636.032M247.595 605.621L210.001 644.386" stroke="#2A2A2A"/>
<rect x="71.6083" y="473.953" width="5" height="26" rx="1" transform="rotate(44.1218 71.6083 473.953)" fill="#2A2A2A"/>
<rect x="80.2227" y="482.307" width="5" height="26" rx="1" transform="rotate(44.1218 80.2227 482.307)" fill="#2A2A2A"/>
<rect x="97.4513" y="499.016" width="5" height="26" rx="1" transform="rotate(44.1218 97.4513 499.016)" fill="#2A2A2A"/>
<rect x="106.066" y="507.37" width="5" height="26" rx="1" transform="rotate(44.1218 106.066 507.37)" fill="#2A2A2A"/>
<rect x="114.68" y="515.724" width="5" height="26" rx="1" transform="rotate(44.1218 114.68 515.724)" fill="#2A2A2A"/>
<rect x="131.909" y="532.433" width="5" height="26" rx="1" transform="rotate(44.1218 131.909 532.433)" fill="#2A2A2A"/>
</g>
<circle cx="30.7264" cy="30.7264" r="30.7264" transform="matrix(0.846244 -0.532796 -0.532796 -0.846244 436.174 118.833)" fill="#2A2A2A"/>
<circle cx="5.90893" cy="5.90893" r="5.90893" transform="matrix(0.0703202 -0.997524 -0.997524 -0.0703202 391.292 46.3916)" fill="#E5FF8F"/>
<circle cx="5.90893" cy="5.90893" r="5.90893" transform="matrix(0.0703202 -0.997524 -0.997524 -0.0703202 414.803 37.7815)" fill="#FDB08D"/>
<circle cx="5.515" cy="5.515" r="5.015" transform="matrix(0.0703202 -0.997524 -0.997524 -0.0703202 414.859 36.9956)" stroke="#2A2A2A"/>
<circle cx="3.15143" cy="3.15143" r="2.65143" transform="matrix(0.0703202 -0.997524 -0.997524 -0.0703202 389.886 43.9231)" stroke="#2A2A2A"/>
<path d="M479.046 94.5073C476.055 100.028 471.646 104.879 465.954 108.463C448.279 119.591 424.93 114.284 413.803 96.6094C406.088 84.3556 406.272 69.3744 413.001 57.6293" stroke="#2A2A2A"/>
<circle cx="6.69679" cy="6.69679" r="6.69679" transform="matrix(0.846244 -0.532796 -0.532796 -0.846244 431.631 83.5224)" fill="#E5FF8F"/>
<circle cx="3.15143" cy="3.15143" r="3.15143" transform="matrix(0.846244 -0.532796 -0.532796 -0.846244 431.409 66.9041)" fill="#5FA66A"/>
<circle cx="11.8179" cy="11.8179" r="11.8179" transform="matrix(0.846244 -0.532796 -0.532796 -0.846244 445.978 78.2137)" fill="#FDB08D"/>
<path d="M159 62.9847C186.542 48.3669 219.094 39.6892 256.025 39.6892C338.333 39.6892 398.435 82.7912 429.942 138.689" stroke="#2A2A2A"/>
<path d="M410.5 110.189L418.5 103.189" stroke="#2A2A2A"/>
<path d="M412 112.189L420 104.689" stroke="#2A2A2A"/>
<rect x="64" y="541.689" width="382" height="27" rx="4" fill="#2A2A2A"/>
<path d="M73.0039 558.689V555.32C73.0039 555.008 72.9225 554.767 72.7598 554.597C72.597 554.428 72.3691 554.343 72.0762 554.343C71.2624 554.343 70.8555 554.822 70.8555 555.779L70.5527 554.451H70.9531C70.9824 554.103 71.1094 553.844 71.334 553.675C71.5586 553.502 71.8874 553.416 72.3203 553.416C72.8672 553.416 73.2904 553.582 73.5898 553.914C73.8893 554.246 74.0391 554.715 74.0391 555.32V558.689H73.0039ZM69.8203 558.689V553.513H70.7578L70.8555 554.607V558.689H69.8203ZM77.7891 558.787C77.0729 558.787 76.5163 558.552 76.1191 558.084C75.722 557.615 75.5234 556.954 75.5234 556.101C75.5234 555.245 75.722 554.584 76.1191 554.119C76.5163 553.65 77.0729 553.416 77.7891 553.416C78.5085 553.416 79.0651 553.65 79.459 554.119C79.8561 554.584 80.0547 555.245 80.0547 556.101C80.0547 556.954 79.8561 557.615 79.459 558.084C79.0651 558.552 78.5085 558.787 77.7891 558.787ZM77.7891 557.859C78.1699 557.859 78.4629 557.706 78.668 557.4C78.8763 557.094 78.9805 556.661 78.9805 556.101C78.9805 555.538 78.8763 555.105 78.668 554.802C78.4629 554.496 78.1699 554.343 77.7891 554.343C77.4082 554.343 77.1136 554.496 76.9053 554.802C76.7002 555.105 76.5977 555.538 76.5977 556.101C76.5977 556.661 76.7002 557.094 76.9053 557.4C77.1136 557.706 77.4082 557.859 77.7891 557.859ZM83.2529 558.787C82.5758 558.787 82.0615 558.564 81.71 558.118C81.3617 557.672 81.1875 557.016 81.1875 556.15C81.1875 555.252 81.3617 554.571 81.71 554.109C82.0615 553.647 82.5758 553.416 83.2529 553.416C83.6403 553.416 83.9544 553.507 84.1953 553.689C84.4395 553.871 84.5827 554.125 84.625 554.451H85.0254L84.7227 555.926C84.7227 555.392 84.6169 554.986 84.4053 554.71C84.1969 554.433 83.8893 554.295 83.4824 554.295C83.0658 554.295 82.75 554.451 82.5352 554.763C82.3203 555.076 82.2129 555.538 82.2129 556.15C82.2129 556.73 82.3203 557.167 82.5352 557.464C82.75 557.76 83.0658 557.908 83.4824 557.908C83.8893 557.908 84.1969 557.77 84.4053 557.493C84.6169 557.216 84.7227 556.811 84.7227 556.277L85.0742 557.752H84.625C84.5924 558.077 84.4541 558.331 84.21 558.513C83.9691 558.696 83.6501 558.787 83.2529 558.787ZM84.8301 558.738L84.7227 557.722V551.365H85.7578V558.689L84.8301 558.738ZM89.957 558.787C89.0749 558.787 88.3929 558.556 87.9111 558.093C87.4326 557.628 87.1934 556.961 87.1934 556.092C87.1934 555.245 87.3968 554.588 87.8037 554.119C88.2106 553.65 88.7852 553.416 89.5273 553.416C90.2272 553.416 90.7676 553.627 91.1484 554.051C91.5326 554.474 91.7246 555.089 91.7246 555.896C91.7246 556.134 91.7148 556.355 91.6953 556.56H88.0625V555.769H90.7871C90.7871 555.304 90.6764 554.947 90.4551 554.7C90.2337 554.449 89.9277 554.324 89.5371 554.324C89.0977 554.324 88.7559 554.474 88.5117 554.773C88.2708 555.073 88.1504 555.496 88.1504 556.043C88.1504 556.642 88.3164 557.097 88.6484 557.41C88.9837 557.722 89.459 557.879 90.0742 557.879C90.2891 557.879 90.5007 557.867 90.709 557.844C90.9173 557.818 91.1289 557.784 91.3438 557.742L91.4707 558.65C91.1647 558.709 90.8848 558.746 90.6309 558.762C90.377 558.779 90.1523 558.787 89.957 558.787ZM100.875 556.463L100.572 554.842H100.973C101.031 553.891 101.507 553.416 102.398 553.416C102.932 553.416 103.32 553.569 103.561 553.875C103.801 554.181 103.922 554.676 103.922 555.359H102.896C102.896 554.981 102.84 554.71 102.726 554.544C102.615 554.378 102.434 554.295 102.184 554.295C101.744 554.295 101.415 554.483 101.197 554.861C100.982 555.235 100.875 555.769 100.875 556.463ZM98.6875 558.689V557.781H102.145V558.689H98.6875ZM99.8398 558.689V553.513H100.68L100.875 554.998V558.689H99.8398ZM98.8828 554.422V553.513H100.611L100.709 554.422H98.8828ZM104.522 561.033L104.474 560.105L105.284 560.008C105.626 559.965 105.917 559.872 106.158 559.729C106.402 559.586 106.611 559.373 106.783 559.09C106.956 558.81 107.107 558.442 107.237 557.986L108.526 553.513H109.601L108.106 558.23C107.911 558.849 107.691 559.347 107.447 559.724C107.206 560.102 106.92 560.385 106.588 560.574C106.259 560.763 105.864 560.883 105.401 560.935L104.522 561.033ZM106.485 558.689L104.425 553.513H105.499L107.188 557.908H107.345V558.689H106.485ZM110.504 559.597V558.689H115.387V559.597H110.504ZM118.116 558.689L116.266 553.513H117.369L118.761 557.81H118.849L120.24 553.513H121.344L119.493 558.689H118.116ZM124.244 558.787C123.886 558.787 123.557 558.766 123.258 558.723C122.962 558.681 122.698 558.624 122.467 558.552L122.589 557.62C122.787 557.675 123.01 557.734 123.258 557.796C123.508 557.857 123.824 557.888 124.205 557.888C124.713 557.888 125.107 557.787 125.387 557.586C125.667 557.384 125.807 557.101 125.807 556.736C125.807 556.476 125.725 556.254 125.562 556.072C125.403 555.89 125.17 555.751 124.864 555.657C124.558 555.563 124.186 555.515 123.746 555.515H123.59L123.473 554.881L124.967 554.998C125.52 555.04 125.969 555.221 126.314 555.54C126.66 555.856 126.832 556.287 126.832 556.834C126.832 557.452 126.606 557.932 126.153 558.274C125.704 558.616 125.068 558.787 124.244 558.787ZM123.59 555.515L123.473 554.881C123.987 554.812 124.404 554.711 124.723 554.578C125.045 554.444 125.281 554.283 125.431 554.094C125.584 553.902 125.66 553.689 125.66 553.455C125.66 553.172 125.567 552.952 125.382 552.796C125.2 552.636 124.938 552.556 124.596 552.556C124.348 552.556 124.085 552.618 123.805 552.742C123.528 552.866 123.266 553.051 123.019 553.299L122.345 552.63C122.644 552.291 122.991 552.045 123.385 551.892C123.779 551.736 124.218 551.658 124.703 551.658C125.335 551.658 125.823 551.793 126.168 552.063C126.513 552.33 126.686 552.713 126.686 553.211C126.686 553.627 126.552 553.99 126.285 554.3C126.018 554.606 125.67 554.815 125.24 554.929V555.515H123.59ZM127.955 557.136L128.932 552.146H129.986L129 557.136H127.955ZM127.955 557.136L128.639 556.228H131.49V557.136H127.955ZM132.311 557.136V556.228H133.062V557.136H132.311ZM131.393 558.689V551.756H132.408V558.689H131.393ZM136.383 558.787C136.184 558.787 136.013 558.717 135.87 558.577C135.73 558.434 135.66 558.263 135.66 558.064C135.66 557.862 135.73 557.691 135.87 557.551C136.013 557.412 136.184 557.342 136.383 557.342C136.585 557.342 136.756 557.412 136.896 557.551C137.035 557.691 137.105 557.862 137.105 558.064C137.105 558.263 137.035 558.434 136.896 558.577C136.756 558.717 136.585 558.787 136.383 558.787ZM140.191 561.033L140.143 560.115L141.119 560.027C141.643 559.981 142.022 559.829 142.257 559.568C142.494 559.311 142.613 558.917 142.613 558.386V556.814H143.648V558.23C143.648 558.845 143.557 559.347 143.375 559.734C143.193 560.121 142.908 560.413 142.521 560.608C142.133 560.807 141.633 560.929 141.021 560.974L140.191 561.033ZM140.602 554.422V553.513H142.691V554.422H140.602ZM142.613 556.98V553.513H143.648V556.98H142.613ZM143.023 552.693C142.825 552.693 142.654 552.623 142.511 552.483C142.371 552.34 142.301 552.169 142.301 551.97C142.301 551.769 142.371 551.598 142.511 551.458C142.654 551.318 142.825 551.248 143.023 551.248C143.225 551.248 143.396 551.318 143.536 551.458C143.676 551.598 143.746 551.769 143.746 551.97C143.746 552.169 143.676 552.34 143.536 552.483C143.396 552.623 143.225 552.693 143.023 552.693ZM147.701 558.787C147.311 558.787 146.975 558.775 146.695 558.753C146.419 558.73 146.165 558.692 145.934 558.64L146.051 557.703C146.393 557.755 146.694 557.794 146.954 557.82C147.218 557.846 147.467 557.859 147.701 557.859C148.225 557.859 148.604 557.809 148.839 557.708C149.076 557.604 149.195 557.439 149.195 557.215C149.195 557.058 149.153 556.943 149.068 556.868C148.987 556.79 148.86 556.73 148.688 556.687L147.496 556.384C146.985 556.254 146.609 556.093 146.368 555.901C146.131 555.709 146.012 555.418 146.012 555.027C146.012 554.461 146.228 554.051 146.661 553.797C147.097 553.543 147.799 553.416 148.766 553.416C149.016 553.416 149.249 553.424 149.464 553.44C149.682 553.453 149.905 553.478 150.133 553.513L150.025 554.412C149.762 554.386 149.529 554.368 149.327 554.358C149.125 554.348 148.928 554.343 148.736 554.343C148.157 554.343 147.737 554.394 147.477 554.495C147.216 554.592 147.086 554.754 147.086 554.978C147.086 555.128 147.14 555.237 147.247 555.305C147.354 555.37 147.519 555.431 147.74 555.486L148.697 555.72C149.241 555.851 149.638 556.025 149.889 556.243C150.143 556.461 150.27 556.778 150.27 557.195C150.27 557.752 150.066 558.157 149.659 558.411C149.252 558.662 148.6 558.787 147.701 558.787Z" fill="#AEDD88"/>
<path d="M64 534.189H446" stroke="#2A2A2A" stroke-width="3" stroke-linecap="round"/>
<path d="M64 534.689L64 223.689" stroke="#2A2A2A" stroke-width="2" stroke-linecap="round"/>
<path d="M446 533.689L446 491.189" stroke="#2A2A2A" stroke-width="2" stroke-linecap="round"/>
<path d="M188 413.189C180 409.189 169 412.856 164.5 415.189C165.833 417.356 170.2 421.789 177 422.189C183.8 422.589 187.167 416.356 188 413.189Z" fill="#AEDD88"/>
<path d="M99 333.689C95 332.489 92 323.523 91 319.189C91 319.189 95.5 320.689 102 322.689C108.5 324.689 110 332.189 110 332.189C108 333.189 103 334.889 99 333.689Z" fill="#AEDD88"/>
<path d="M178.5 453.189C177 450.356 175.6 444.089 182 441.689C183.833 445.023 185.7 451.989 178.5 453.189Z" fill="#AEDD88"/>
<path d="M336.5 407.189C342.5 417.356 357.9 436.489 371.5 431.689C373.667 425.189 369.7 411.189 336.5 407.189Z" fill="#AEDD88"/>
<path d="M340 441.689C335.667 447.023 329.6 458.589 340 462.189C343.333 458.689 348 449.689 340 441.689Z" fill="#AEDD88"/>
<path d="M149.818 166.445C148.545 157.592 139.263 150.643 134.781 148.275C133.76 150.605 132.606 156.72 136.153 162.535C139.7 168.351 146.741 167.565 149.818 166.445Z" fill="#AEDD88"/>
<path d="M111.535 181.436C113.009 178.588 117.36 173.866 122.98 177.757C121.286 181.164 116.625 186.668 111.535 181.436Z" fill="#AEDD88"/>
<path d="M239.381 285.047C234.447 295.772 227.502 319.33 239.197 327.77C245.773 325.846 255.016 314.607 239.381 285.047Z" fill="#AEDD88"/>
<path d="M213.028 307.586C206.176 307.065 193.214 308.672 196.183 319.269C200.959 320.013 211.013 318.719 213.028 307.586Z" fill="#AEDD88"/>
<path d="M211.948 78.4267C210.725 75.4126 213.745 70.4212 215.408 68.3022C215.408 68.3022 216.711 71.7438 218.674 76.6585C220.637 81.5733 217.655 85.0903 217.655 85.0903C216.262 84.1249 213.171 81.4407 211.948 78.4267Z" fill="#AEDD88"/>
<path d="M189 535.689L191.5 507.048L314.5 485.689L321 535.689L189 535.689Z" fill="#2A2A2A"/>
<path d="M129.5 457.189C131.9 457.589 134.5 456.356 135.5 455.689C135.5 455.689 162 394.689 167 384.189C172 373.689 187 344.189 188 344.689C189 345.189 191 361.689 191 361.689C191 361.689 190 365.689 190 367.689C190 369.689 192.5 372.189 192.5 372.189C192.5 372.189 195.5 421.689 195.5 435.689C195.5 449.689 192 485.689 192 485.689L188.5 488.189L188 503.189C188 503.189 194 523.689 236.5 524.189C279 524.689 315.5 491.689 316.365 490.189C317.231 488.689 317.5 480.689 316.365 476.189C315.231 471.689 312 465.189 312 465.189C312 465.189 310.5 436.189 312 417.689C313.5 399.189 316 370.689 316 370.689C316 370.689 318.5 368.189 318.5 366.689C318.5 365.189 317.5 361.689 317.5 361.689C317.5 361.689 320 341.689 321.5 340.689C323 339.689 370 393.189 370 393.189L372 390.689C377.5 384.189 367 375.689 370 373.689C372.4 372.089 375.5 376.189 376 375.689C376.5 375.189 377 370.689 378 370.689C379 370.689 382.5 371.189 383 372.189C383.5 373.189 383.7 378.989 384.5 380.189C385.5 381.689 392 391.189 402 390.689C410 390.289 409.333 381.189 408 376.689C408 376.689 387 354.689 372 335.689C358.921 319.123 333 280.689 333 280.689L306.5 267.189C309.833 265.023 314.4 259.689 314 255.689C313.5 250.689 276 223.189 257 223.689C238 224.189 231 232.189 211.5 243.189C192 254.189 195 253.689 195 258.689C195 262.689 200.333 266.023 203 267.189L170.5 278.189C161.667 298.189 141.3 344.689 130.5 370.689C117 403.189 111 410.689 116 422.689C121 434.689 130.5 432.189 135.5 431.689C139.5 431.289 138.833 434.856 138 436.689C136.5 436.523 132.9 436.289 130.5 436.689C127.5 437.189 126.5 441.189 125.5 446.189C124.5 451.189 126.5 456.689 129.5 457.189Z" fill="#5FA66A"/>
<path d="M394 411.189C391.2 409.189 392.833 403.356 394 400.689C396.691 399.119 401.775 397.36 404.5 398.689C407.851 400.324 408.552 405.604 408 409.189C407 415.689 397.5 413.689 394 411.189Z" fill="#5FA66A"/>
<mask id="mask1_39_369" style="mask-type:alpha" maskUnits="userSpaceOnUse" x="114" y="223" width="295" height="302">
<path d="M129.5 457.189C131.9 457.589 134.5 456.356 135.5 455.689C135.5 455.689 162 394.689 167 384.189C172 373.689 187 344.189 188 344.689C189 345.189 191 361.689 191 361.689C191 361.689 190 365.689 190 367.689C190 369.689 192.5 372.189 192.5 372.189C192.5 372.189 195.5 421.689 195.5 435.689C195.5 446.67 193.194 472.494 192 482.689C191.672 485.492 191 486.189 191 486.189L188.5 488.189L188 503.189C188 503.189 194 523.689 236.5 524.189C279 524.689 315.5 491.689 316.365 490.189C317.231 488.689 317.5 480.689 316.365 476.189C315.231 471.689 312 465.189 312 465.189C312 465.189 310.5 436.189 312 417.689C313.5 399.189 316 370.689 316 370.689C316 370.689 318.5 368.189 318.5 366.689C318.5 365.189 317.5 361.689 317.5 361.689C317.5 361.689 320 341.689 321.5 340.689C323 339.689 370 393.189 370 393.189L372 390.689C377.5 384.189 367 375.689 370 373.689C372.4 372.089 375.5 376.189 376 375.689C376.5 375.189 377 370.689 378 370.689C379 370.689 382.5 371.189 383 372.189C383.5 373.189 383.7 378.989 384.5 380.189C385.5 381.689 392 391.189 402 390.689C410 390.289 409.333 381.189 408 376.689C408 376.689 387 354.689 372 335.689C357 316.689 339.5 292.189 339.5 292.189L333 280.689C330.167 279.023 322.845 276.245 317.5 274.189C311 271.689 306.5 267.189 306.5 267.189C309.833 265.023 314.4 259.689 314 255.689C313.5 250.689 276 223.189 257 223.689C238 224.189 231 232.189 211.5 243.189C192 254.189 195 253.689 195 258.689C195 262.689 200.333 266.023 203 267.189L170.5 278.189C161.667 298.189 141.3 344.689 130.5 370.689C117 403.189 111 410.689 116 422.689C121 434.689 130.5 432.189 135.5 431.689C139.5 431.289 138.833 434.856 138 436.689C136.5 436.523 132.9 436.289 130.5 436.689C127.5 437.189 126.5 441.189 125.5 446.189C124.5 451.189 126.5 456.689 129.5 457.189Z" fill="#5FA66A"/>
<path d="M394 411.189C391.2 409.189 392.833 403.356 394 400.689C396.691 399.119 401.775 397.36 404.5 398.689C407.851 400.324 408.552 405.604 408 409.189C407 415.689 397.5 413.689 394 411.189Z" fill="#5FA66A"/>
</mask>
<g mask="url(#mask1_39_369)">
<path d="M197 501.189L195.5 496.189C195.5 496.189 198.326 495.098 201.5 489.689C204.796 484.073 208.472 474.038 210 468.689C213 458.189 215.5 433.189 215.5 433.189H253C270 433.189 290.5 429.189 290.5 429.189C290.5 429.189 293 449.689 294.5 457.689C296 465.689 304 481.689 304 481.689C304 481.689 274.5 503.689 249.5 509.189C224.5 514.689 197 501.189 197 501.189Z" stroke="#56865D"/>
<path d="M219.028 237.689C219.354 237.328 219.679 236.994 220 236.689L219.028 237.689C212.405 245.023 205.389 263.49 227.5 275.689C227.5 275.689 218 288.689 216.5 317.689C215 346.689 214 368.189 214 368.189L212.5 371.689L215 374.689C219.5 394.689 224.127 431.978 222 457.689C220.409 476.92 211 491.189 204 496.189C204 496.189 204.5 503.189 206.5 510.689C208.5 518.189 212 521.189 212 521.189L205 518.689L200 495.689C205.157 493.189 216.076 480.789 218.5 451.189C220.924 421.589 215.51 388.189 211.5 374.689L208 372.689L211.5 368.189C211.5 368.189 212.5 323.689 214.5 307.189C216.5 290.689 224 275.689 224 275.689C221 275.189 213 270.989 207 260.189C201 249.389 212.028 241.689 219.028 237.689Z" fill="#E5FF8F"/>
<path d="M278.5 274.689C301.7 261.889 299 245.189 287.5 234.189L291.5 236.189C298.5 240.189 307 248.889 301 259.689C295 270.489 285.5 274.189 282.5 274.689C282.5 274.689 287.5 284.189 289.5 300.689C291.5 317.189 291.5 365.689 291.5 365.689L295.5 370.189L292.5 375.189C290 389.689 284.316 423.719 288 453.189C289.5 465.189 293.843 477.689 299 480.189L300.5 505.689L296.5 508.689C296.5 508.689 297 503.689 297 495.189C297 486.689 296.5 481.689 296.5 481.689C289.5 476.689 285.5 463.689 284 454.689C281.873 428.978 286.926 394.426 289.5 374.689L291.5 370.189L289 367.689C289 367.689 289 348.689 288 318.689C287 288.689 278.5 274.689 278.5 274.689Z" fill="#E5FF8F"/>
</g>
<path d="M244.564 348.998C262.093 355.064 275.652 347.587 277.318 345.366C278.984 343.145 267.541 332.022 256.265 326C245.154 320.066 227.559 322.062 226.581 323.523C225.603 324.985 234.979 345.681 244.564 348.998Z" stroke="#E5FF8F"/>
<path d="M272.364 348.562L242.408 335.158L231.464 335.473" stroke="#E5FF8F"/>
<path d="M275.109 347.118L244.335 332.869L230.533 322.392" stroke="#E5FF8F"/>
<path d="M275.5 332.189C274 332.689 261.1 321.289 265.5 311.689C280 313.189 277 331.689 275.5 332.189Z" stroke="#E5FF8F"/>
<mask id="mask2_39_369" style="mask-type:alpha" maskUnits="userSpaceOnUse" x="200" y="127" width="108" height="144">
<path d="M233.5 258.171L235.5 238.911H272.5L274.5 258.171L277.5 260.097C276.333 263.627 270 270.689 254 270.689C238 270.689 231.667 263.627 230.5 260.097L233.5 258.171Z" fill="#FFDCBA"/>
<path d="M210.5 205.208C212.9 208.289 215.833 208.097 217 207.615L215.5 188.356C215.5 188.356 205 178.726 203.5 178.726C202 178.726 201.3 179.208 200.5 181.134C198.5 187.393 207.5 201.356 210.5 205.208Z" fill="#FFDCBA"/>
<path d="M297.5 205.208C295.1 208.289 292.167 208.097 291 207.615L292.5 188.356C292.5 188.356 303 178.726 304.5 178.726C306 178.726 306.7 179.208 307.5 181.134C309.5 187.393 300.5 201.356 297.5 205.208Z" fill="#FFDCBA"/>
<path d="M218.5 228.319C219 230.245 229.5 240.356 234 244.208C238.5 248.06 242 251.43 244.5 252.393C247 253.356 260.5 253.356 263.5 252.393C266.5 251.43 269.5 248.06 274 244.208C278.5 240.356 288.5 230.245 289.5 228.319C290.5 226.393 295.5 197.504 295.5 193.171C295.5 188.837 296 162.837 295.5 159.467C295 156.097 290.3 143 279.5 134.911C269.857 127.689 262.5 127.689 254 127.689C245.5 127.689 238.143 127.689 228.5 134.911C217.7 143 213.5 152.245 212.5 159.467C211.5 166.689 213.5 188.837 213.5 193.171C213.5 197.504 218 226.393 218.5 228.319Z" fill="#FFDCBA"/>
</mask>
<g mask="url(#mask2_39_369)">
<path d="M233.5 258.171L235.5 238.911H272.5L274.5 258.171V260.689C273.333 264.22 270 270.689 254 270.689C238 270.689 234.667 264.22 233.5 260.689V258.171Z" fill="#FFDCBA"/>
<path d="M210.5 205.208C212.9 208.289 215.833 208.097 217 207.615L215.5 188.356C215.5 188.356 205 178.726 203.5 178.726C202 178.726 201.3 179.208 200.5 181.134C198.5 187.393 207.5 201.356 210.5 205.208Z" fill="#FFDCBA"/>
<path d="M297.5 205.208C295.1 208.289 292.167 208.097 291 207.615L292.5 188.356C292.5 188.356 303 178.726 304.5 178.726C306 178.726 306.7 179.208 307.5 181.134C309.5 187.393 300.5 201.356 297.5 205.208Z" fill="#FFDCBA"/>
<path d="M218.5 228.319C219 230.245 229.5 240.356 234 244.208C238.5 248.06 242 251.43 244.5 252.393C247 253.356 260.5 253.356 263.5 252.393C266.5 251.43 269.5 248.06 274 244.208C278.5 240.356 288.5 230.245 289.5 228.319C290.5 226.393 295.5 197.504 295.5 193.171C295.5 188.837 296 162.837 295.5 159.467C295 156.097 290.3 143 279.5 134.911C269.857 127.689 262.5 127.689 254 127.689C245.5 127.689 238.143 127.689 228.5 134.911C217.7 143 213.5 152.245 212.5 159.467C211.5 166.689 213.5 188.837 213.5 193.171C213.5 197.504 218 226.393 218.5 228.319Z" fill="#FFDCBA"/>
<path d="M243 212.689L251.5 205.689V205.189L241.5 213.189C241.5 213.189 243.5 215.689 247.5 217.689L254 221.189V218.189C252.4 218.189 245.667 214.356 243 212.689Z" fill="#E3BEAC"/>
<path d="M265 212.689L256.5 205.689V205.189L266.5 213.189C266.5 213.189 265 215.689 261 217.689L254 221.189V218.189C255.6 218.189 262.333 214.356 265 212.689Z" fill="#E3BEAC"/>
<path d="M224.5 185.594L222 176.957L234.5 169.279L247 172.158L249 180.316C249 182.715 246.5 186.554 246.5 186.554L224.5 185.594Z" fill="#D8B2A6"/>
<path d="M283.5 185.594L286 176.957L273.5 169.279L260 172.158L259 180.316C259 182.715 261.5 186.554 261.5 186.554L283.5 185.594Z" fill="#D8B2A6"/>
<path fill-rule="evenodd" clip-rule="evenodd" d="M237 247.015L217 229.74L215 202.389C212.833 201.269 208.1 197.782 206.5 192.792C204.5 186.554 205 186.554 206.5 187.513C207.7 188.281 212 191.352 214 192.792L212.5 181.189L210 169.279L204 141.447L220.5 135.689C220.5 135.689 221 141.927 221.5 147.206C222 152.484 224.5 158.242 224.5 158.242C222 162.081 216.9 170.239 216.5 172.158C216.1 174.077 218.333 183.515 219.5 187.993C219.167 191.192 218.6 197.782 219 198.55C219.4 199.318 227.833 207.507 232 211.506C232 211.506 236.5 223.502 238 226.861C239.5 230.22 244.5 237.898 244.5 237.898C246 238.698 252.5 240.689 256.5 240.689C260.5 240.689 266 237.189 267 236.189C268 235.189 270 230.189 271.5 226.189C273 222.189 276 211.506 276 211.506C280.167 207.507 288.6 199.318 289 198.55C289.4 197.782 288.833 191.192 288.5 187.993C289.667 183.515 291.9 174.077 291.5 172.158C291.1 170.239 286 162.081 283.5 158.242C283.5 158.242 286 152.484 286.5 147.206C287 141.927 287.5 135.689 287.5 135.689L304 141.447L298 169.279L294.5 191.832C295.849 190.861 298.015 189.585 299.652 188.622C300.442 188.156 301.109 187.763 301.5 187.513C303 186.554 303.5 186.554 301.5 192.792C299.9 197.782 296.167 201.269 294 202.389L291 229.74L271 247.015C271 247.015 266.5 251.814 265 252.294C263.5 252.773 254 253.253 254 253.253C254 253.253 245 253.253 243.5 252.294C242 251.334 237 247.015 237 247.015Z" fill="url(#paint2_linear_39_369)"/>
<path d="M237 247.015C236.2 265.058 249 266.689 254 266.689C259 266.689 271.8 265.058 271 247.015C271 247.015 266.5 251.814 265 252.294C263.5 252.773 254 253.253 254 253.253C254 253.253 245 253.253 243.5 252.294C242 251.334 237 247.015 237 247.015Z" fill="#D8B2A6" fill-opacity="0.4"/>
<path d="M275.5 222.189L277 217.689C277 217.689 269.991 217.799 265.5 218.189C261.009 218.58 254 219.689 254 219.689C254 219.689 246 221.189 243.5 222.189C241 223.189 234 227.189 234 227.189L235 229.689L275.5 222.189Z" fill="#E3BEAC"/>
<path d="M230.5 172.746C227.7 173.546 220 180.746 219.5 180.746C219 180.746 218.5 176.746 218.5 176.746C218.5 176.746 228 166.746 229.5 166.246C231 165.746 242.5 168.246 243 167.746C243.5 167.246 243.7 167.246 244.5 167.246C245.3 167.246 247.5 168.246 248 169.246C248.5 170.246 248 174.246 248 174.246C247.667 174.412 246.9 174.746 246.5 174.746C246 174.746 234 171.746 230.5 172.746Z" fill="#2A2A2A"/>
<path d="M276 174.246C278.8 175.046 286.5 180.246 287 180.246C287.5 180.246 287.5 176.246 287.5 176.246C287.5 176.246 278.5 168.246 277 167.746C275.5 167.246 263.5 170.246 263 169.746C262.5 169.246 262.8 169.246 262 169.246C261.2 169.246 258.5 170.746 258 171.246C257.5 171.746 258 175.246 258 175.246C258.333 175.412 259.6 176.246 260 176.246C260.5 176.246 272.5 173.246 276 174.246Z" fill="#2A2A2A"/>
<path fill-rule="evenodd" clip-rule="evenodd" d="M224.5 186.189C227.333 183.689 232.3 179.646 235.5 179.246C236.773 179.087 240.667 179.403 242 180.246C243.245 181.033 244.094 181.984 244.5 183.246C244.752 184.029 245.077 185.169 245.5 185.746C245.5 185.746 246 185.246 246.5 185.746C247 186.246 247 186.746 246.5 187.246L225.5 186.746L224.5 186.189Z" fill="url(#paint3_linear_39_369)"/>
<path d="M238 192.746C241.6 192.746 245.167 189.079 246.5 187.246L225.5 186.746C228.167 188.746 234.4 192.746 238 192.746Z" fill="#BB8573"/>
<path d="M237.5 180.746C232.683 180.746 229.167 184.579 227.5 186.746C228.667 188.412 233.5 191.246 237 191.746C241.209 192.347 244.5 189.079 245 187.246C244.333 185.246 242.5 180.746 237.5 180.746Z" fill="#FFF0E2"/>
<path fill-rule="evenodd" clip-rule="evenodd" d="M283 186.189C280.167 183.689 277.2 180.146 274 179.746C272.727 179.587 267.5 178.746 265.875 180.246C264.63 181.033 263.781 181.984 263.375 183.246C263.123 184.029 262.798 185.169 262.375 185.746C262.375 185.746 261.875 185.246 261.375 185.746C260.875 186.246 260.875 186.746 261.375 187.246L282.375 186.746L283 186.189Z" fill="url(#paint4_linear_39_369)"/>
<path d="M269.875 192.746C266.275 192.746 262.708 189.079 261.375 187.246L282.375 186.746C279.708 188.746 273.475 192.746 269.875 192.746Z" fill="#BB8573"/>
<path d="M270.375 180.746C275.192 180.746 278.333 184.579 280 186.746C278.833 188.412 274.375 191.246 270.875 191.746C266.666 192.347 263.375 189.079 262.875 187.246C263.542 185.246 265.375 180.746 270.375 180.746Z" fill="#FFF0E2"/>
<mask id="mask3_39_369" style="mask-type:alpha" maskUnits="userSpaceOnUse" x="227" y="180" width="18" height="12">
<path d="M237.5 180.746C232.683 180.746 229.167 184.579 227.5 186.746C228.667 188.412 233.5 191.246 237 191.746C241.209 192.347 244.5 189.079 245 187.246C244.333 185.246 242.5 180.746 237.5 180.746Z" fill="#FFF0E2"/>
</mask>
<g mask="url(#mask3_39_369)">
<circle cx="237.5" cy="185.189" r="6.5" fill="white"/>
<circle cx="238.5" cy="184.189" r="4.5" fill="#7E9C83"/>
<circle cx="238.5" cy="184.189" r="3.5" fill="#2A2A2A"/>
<circle cx="236.5" cy="182.189" r="1.5" fill="#FFF0E2"/>
<circle cx="240" cy="185.689" r="1" fill="#FFF0E2"/>
</g>
<mask id="mask4_39_369" style="mask-type:alpha" maskUnits="userSpaceOnUse" x="262" y="180" width="18" height="12">
<path d="M270.375 180.746C275.192 180.746 278.333 184.579 280 186.746C278.833 188.412 274.375 191.246 270.875 191.746C266.666 192.347 263.375 189.079 262.875 187.246C263.542 185.246 265.375 180.746 270.375 180.746Z" fill="#FFF0E2"/>
</mask>
<g mask="url(#mask4_39_369)">
<circle cx="270.5" cy="185.189" r="6.5" fill="white"/>
<circle cx="270" cy="184.189" r="4.5" fill="#7E9C83"/>
<circle cx="270" cy="184.189" r="3.5" fill="#2A2A2A"/>
<circle cx="268.5" cy="182.189" r="1.5" fill="#FFF0E2"/>
<circle cx="271.5" cy="185.689" r="1" fill="#FFF0E2"/>
</g>
<circle cx="220.5" cy="172.189" r="0.5" fill="#2A2A2A"/>
<circle cx="222.5" cy="170.189" r="0.5" fill="#2A2A2A"/>
<circle cx="224.5" cy="168.189" r="0.5" fill="#2A2A2A"/>
<path d="M270 223.689C265.349 224.619 249.167 228.356 240 229.189C240 229.189 255.5 232.189 260 231.189C264.5 230.189 272.5 223.189 270 223.689Z" fill="white"/>
</g>
<path d="M31.5 310.689C31 311.689 33.5 313.189 35 314.189C36.5 315.189 140.5 290.189 141.5 289.189C142.5 288.189 143.5 284.689 143 283.689C142.5 282.689 130 263.689 130 263.689C130 263.689 123 204.189 122.5 203.689C122 203.189 121 202.189 120.5 202.189C120 202.189 28 226.689 27 227.189C26 227.689 25.5 228.689 25.5 229.189C25.5 229.689 52.5 281.689 52.5 281.689C52.5 281.689 32 309.689 31.5 310.689Z" fill="#2A2A2A"/>
<path d="M29 230.689C29 231.158 53.7997 280.689 53.7997 280.689L128.5 262.689C128.5 262.689 121.466 207.658 121 207.189C120.534 206.721 118.391 205.689 117.925 205.689C117.46 205.689 30.8623 228.652 29.9312 229.121C29 229.589 29 230.221 29 230.689Z" fill="#FDB08D"/>
<path fill-rule="evenodd" clip-rule="evenodd" d="M32 231.689C32 231.352 32 230.897 32.6718 230.56C33.3436 230.222 95.8187 213.689 96.1546 213.689C96.4905 213.689 98.0371 214.432 98.3729 214.769C98.6092 215.007 103.278 239.617 106.025 254.189L49.4055 268.689C43.0003 255.174 32 231.928 32 231.689Z" fill="white"/>
<path d="M53.8916 278.149L108 264.689C108 264.689 107.357 261.255 106.402 256.189L50.1164 270.189C52.3643 274.931 53.8916 278.149 53.8916 278.149Z" fill="#E5FF8F"/>
<path d="M126.5 260.189L109.5 264.189L100.591 215.377L100.5 212.689L118 208.189L120 210.189L126.5 260.189Z" fill="#CDF4AD"/>
<path d="M38.1905 239.652C36.7492 238.74 36.551 234.717 36.6321 232.819C36.6321 232.819 38.2372 233.908 40.5739 235.412C42.9106 236.915 42.6796 240.175 42.6796 240.175C41.7838 240.381 39.6319 240.565 38.1905 239.652Z" fill="#AEDD88"/>
<path d="M98.7077 234.116C95.594 238.041 90.2851 247.069 93.9597 251.778C96.7557 251.666 101.62 247.975 98.7077 234.116Z" fill="#AEDD88"/>
<path d="M85.8796 240.704C83.2426 239.776 77.9705 239.093 77.9781 243.788C79.7743 244.592 83.8693 245.102 85.8796 240.704Z" fill="#AEDD88"/>
<circle cx="60" cy="240.689" r="12" fill="#FDB08D"/>
<path d="M400 540.689C398.4 533.089 400.667 528.023 402.5 526.689C409 525.689 411.658 528.67 413 534.189C413.616 536.721 414 543.189 415 546.189L420.5 552.689C419.5 554.189 414 553.447 408 550.689C403.358 548.555 400.801 544.496 400 540.689Z" fill="#C18F78"/>
<path d="M454 433.689L386 477.689C385.2 481.289 387.667 482.523 389 482.689L457 438.189L462 432.189L454 433.689Z" fill="#5FA66A"/>
<path fill-rule="evenodd" clip-rule="evenodd" d="M389.5 435.189L402 528.189C402.274 527.641 403.916 526.6 405.5 526.689C406.808 526.763 408.075 527.892 408.5 528.189L390.5 433.189C389.987 432.523 389.07 431.989 389.5 435.189Z" fill="#FDB08D"/>
<path fill-rule="evenodd" clip-rule="evenodd" d="M404.5 547.395C398.5 542.195 400.333 532.023 402 528.189C402.274 527.641 403.916 526.6 405.5 526.689C406.808 526.763 408.075 527.892 408.5 528.189C411.691 530.423 412.031 532.657 412.509 535.801C412.725 537.218 412.968 538.819 413.514 540.689C411.342 539.856 407.3 539.589 408.5 545.189L408 546.189C407 545.719 405.1 546.425 405.5 548.189C405.153 547.936 404.819 547.671 404.5 547.395Z" fill="#FFF5C8"/>
<path d="M420.5 552.689C420.5 551.689 416 547.789 414 542.189C413.815 541.67 413.654 541.171 413.514 540.689C411.342 539.856 407.3 539.589 408.5 545.189L408 546.189C407 545.719 405.1 546.425 405.5 548.189C411.67 552.694 420.5 553.689 420.5 552.689Z" fill="#FDB08D"/>
<path d="M358.5 521.189L347.5 499.689L352.5 497.189C352.833 496.689 353.1 496.289 353.5 494.689C353.9 493.089 357.667 492.189 358.5 492.189H360.5C360.667 491.189 361.1 488.889 361.5 487.689C361.9 486.489 364.667 486.523 366 486.689L372 498.689C374.167 503.523 378.3 513.889 377.5 516.689C376.7 519.489 364 520.856 358.5 521.189Z" fill="white"/>
<path d="M360 518.689L351.5 500.689C351.5 500.689 356.5 497.189 358.5 495.689C360.5 494.189 365.5 491.689 365.5 491.689L375 514.689C375 514.689 372 516.689 368 517.689C364 518.689 360 518.689 360 518.689Z" stroke="#FDB08D"/>
<path d="M365.5 499.689L357.5 505.189L359.5 509.689L368 505.689L365.5 499.689Z" stroke="#AEDD88"/>
<path d="M364 515.189L361.5 511.189L367 508.689L368.5 513.189L364 515.189Z" stroke="#AEDD88"/>
<circle cx="360.5" cy="506.189" r="1.5" fill="#AEDD88"/>
<circle cx="364.5" cy="504.189" r="1.5" fill="#AEDD88"/>
<line x1="360.584" y1="501.967" x2="358.584" y2="498.967" stroke="#AEDD88"/>
<path d="M442.446 468.145L474.524 484.912L470.45 488.65C470.152 489.607 468.245 492.266 468.533 494.716C468.82 497.166 463.474 501.335 461.926 502.102C458.987 503.558 457.489 507.36 457.542 510.762C457.572 512.692 452.29 514.917 449.593 515.072L431.146 503.167C424.005 498.873 414.04 492.586 413.469 491.218C412.693 489.356 432.44 473.641 442.446 468.145Z" fill="white"/>
<path d="M443.001 471.007L470.397 486.601C470.397 486.601 463.361 495.757 460.611 499.55C457.861 503.342 450.181 511.197 450.181 511.197L417.704 490.019C417.704 490.019 421.99 484.655 428.779 479.672C435.568 474.689 443.001 471.007 443.001 471.007Z" stroke="#FDB08D"/>
<ellipse cx="443.5" cy="491.689" rx="9.5" ry="8" fill="#FDB08D"/>
<path d="M449 484.689C448.167 482.689 447 478.689 449 478.689C451 478.689 449.833 482.689 449 484.689Z" fill="#5FA66A"/>
<path d="M451 484.689L454 481.689" stroke="#C18F78" stroke-linecap="round"/>
<defs>
<linearGradient id="paint0_linear_39_369" x1="141" y1="82.6892" x2="423.119" y2="645.166" gradientUnits="userSpaceOnUse">
<stop stop-color="#CDEE8C"/>
<stop offset="0.335" stop-color="#CDEE8C"/>
<stop offset="0.72" stop-color="#EFDE8E"/>
</linearGradient>
<linearGradient id="paint1_linear_39_369" x1="141" y1="82.6892" x2="423.119" y2="645.166" gradientUnits="userSpaceOnUse">
<stop stop-color="#CDEE8C"/>
<stop offset="0.335" stop-color="#CDEE8C"/>
<stop offset="0.72" stop-color="#EFDE8E"/>
</linearGradient>
<linearGradient id="paint2_linear_39_369" x1="229.5" y1="142.689" x2="254" y2="266.689" gradientUnits="userSpaceOnUse">
<stop stop-color="#D8B2A6" stop-opacity="0.27"/>
<stop offset="0.59" stop-color="#E3BEAC"/>
</linearGradient>
<linearGradient id="paint3_linear_39_369" x1="236" y1="178.746" x2="236.5" y2="186.246" gradientUnits="userSpaceOnUse">
<stop stop-color="#2A2A2A"/>
</linearGradient>
<linearGradient id="paint4_linear_39_369" x1="271.875" y1="178.746" x2="271.375" y2="186.246" gradientUnits="userSpaceOnUse">
<stop stop-color="#2A2A2A"/>
</linearGradient>
</defs>
</svg>
