<svg width="271" height="740" viewBox="0 0 271 740" fill="none" xmlns="http://www.w3.org/2000/svg">
<path d="M179.726 240.386C165.767 247.615 160.767 244.691 160.545 241.004C160.322 237.316 166.3 231.76 175.975 226.892C187.76 220.963 199.966 221.15 200.026 223.668C200.087 226.186 187.36 236.433 179.726 240.386Z" stroke="#AEDD88"/>
<path d="M187.754 18.2054C177.354 27.4054 179.754 49.2054 181.754 49.7054C183.754 50.2054 195.454 47.9054 206.254 40.7054C217.054 33.5054 218.754 16.2054 216.754 14.2054C214.754 12.2054 198.154 9.00543 187.754 18.2054Z" stroke="#AEDD88"/>
<path d="M1.52676 198.414C-0.473257 200.914 3.37132 215.175 10.5268 208.914C14.5268 205.414 3.52677 195.914 1.52676 198.414Z" stroke="#AEDD88"/>
<path d="M93.6168 173.331C95.9403 180.955 130.627 192.888 127.825 169.352C126.258 156.194 91.2933 165.706 93.6168 173.331Z" stroke="#AEDD88"/>
<path d="M119.379 397.406C117.058 400.406 125.867 417.108 133.199 411.406C136.367 408.942 121.699 394.406 119.379 397.406Z" stroke="#AEDD88"/>
<path d="M154.363 382.582C157.37 391.519 204.114 397.089 202.435 374.162C201.71 364.256 151.356 373.646 154.363 382.582Z" stroke="#AEDD88"/>
<path d="M85.5084 309.637C113.504 323.78 127.093 318.286 129.997 311.227C132.902 304.167 122.503 293.396 103.009 283.867C79.2619 272.259 50.5765 272.359 48.8073 277.182C47.038 282.005 70.1991 301.903 85.5084 309.637Z" stroke="#AEDD88"/>
<path d="M130.349 309.648L79.8486 276.148M128.849 313.648L94.3486 290.148L61.4934 292.896" stroke="#AEDD88"/>
<path d="M39.1242 105.205C55.582 140.864 83.1663 145.143 88.1453 143.174C93.1243 141.205 91.1243 104.205 83.1243 77.2054C75.2414 50.6006 48.8544 30.2896 45.7393 31.7475C42.6243 33.2054 30.1243 85.7054 39.1242 105.205Z" stroke="#AEDD88"/>
<path d="M77.4999 142.5L53.0834 75.7399L37.8001 61.3309" stroke="#AEDD88"/>
<path d="M82.9999 143.5L58.4999 74L52.4999 35" stroke="#AEDD88"/>
<path d="M192.124 106.205C167.724 119.805 164.624 136.705 166.124 139.705C167.624 142.705 195.224 140.805 213.624 135.205C232.024 129.605 239.624 95.7054 237.624 92.2054C235.624 88.7054 216.524 92.6054 192.124 106.205Z" stroke="#AEDD88"/>
<path d="M168.5 128.5L208.5 106L216 95" stroke="#AEDD88"/>
<path d="M167 132.5L210 107.5L237 101" stroke="#AEDD88"/>
<path d="M242.509 50.3124C236.909 51.1124 216.509 64.3124 217.009 66.8124C217.296 68.2458 234.054 71.0286 248.509 69.3124C259.264 68.0354 268.656 63.1519 269.509 59.3124C271.509 50.3124 249.509 49.3124 242.509 50.3124Z" stroke="#AEDD88"/>
<path d="M231.885 55.1069L263.385 65.1069" stroke="#AEDD88"/>
<path d="M238.385 51.6069L263.885 58.6069L269.385 57.6069" stroke="#AEDD88"/>
<line x1="141.5" y1="2.18557e-08" x2="141.5" y2="740" stroke="#AEDD88"/>
<path d="M141.5 353.5L165 314H180.5" stroke="#AEDD88"/>
<path d="M168 310H187" stroke="#AEDD88"/>
<path d="M183.877 293.046C181.452 293.627 179.787 305.804 185.987 305.904C188.666 305.947 186.302 292.466 183.877 293.046Z" stroke="#AEDD88"/>
<path d="M212.044 307.446C212.281 311.141 195.545 318.062 192.666 309.203C191.422 305.376 211.807 303.751 212.044 307.446Z" stroke="#AEDD88"/>
<circle cx="195.571" cy="299.534" r="4" transform="rotate(20.9905 195.571 299.534)" fill="#AEDD88"/>
<path d="M141.5 49.5L120 28" stroke="#AEDD88"/>
<path d="M141.5 54.5L124 37.5" stroke="#AEDD88"/>
</svg>
